<svg width="197px" height="211px" viewBox="0 0 197 211" version="1.1" xmlns="http://www.w3.org/2000/svg" xmlns:xlink="http://www.w3.org/1999/xlink">
    <g id="Page-1" stroke="none" stroke-width="1" fill="none" fill-rule="evenodd">
        <g id="Group" transform="translate(5.000000, 5.000000)" fill-rule="nonzero" stroke="#426579" stroke-width="10">
            <path d="M10,59 L177.071451,59" id="Line" stroke-linecap="square"></path>
            <path d="M177,59 L10,147" id="Line-2" stroke-linecap="square"></path>
            <path d="M10,147 L177.071451,147" id="Line-3" stroke-linecap="square"></path>
            <path d="M84.0851557,11.3109352 C84.0289809,10.881917 84,10.4443429 84,10 C84,4.4771525 88.4771525,0 94,0 C99.5228475,0 104,4.4771525 104,10 C104,10.5296986 103.958816,11.0497781 103.879474,11.557211 C107.204016,12.4502683 110.439803,13.7801998 113.5,15.5470054 L157.071451,40.7029946 C162.137538,43.6279011 166.407345,47.5682088 169.683884,52.1827264 C171.509375,50.2245154 174.111687,49 177,49 C182.522847,49 187,53.4771525 187,59 C187,64.5228475 182.522847,69 177,69 C176.854083,69 176.708896,68.9968747 176.564503,68.9906875 C176.899218,71.0726783 177.071451,73.1960827 177.071451,75.3440108 L177.071451,125.655989 C177.071451,129.597581 176.49146,133.45659 175.391738,137.128644 C175.915321,137.043995 176.452523,137 177,137 C182.522847,137 187,141.477153 187,147 C187,152.522847 182.522847,157 177,157 C172.956454,157 169.473444,154.600059 167.897688,151.146894 C164.908185,154.763018 161.262269,157.877436 157.071451,160.297005 L113.5,185.452995 C110.439803,187.2198 107.204016,188.549732 103.879474,189.442789 C103.958816,189.950222 104,190.470301 104,191 C104,196.522847 99.5228475,201 94,201 C88.4771525,201 84,196.522847 84,191 C84,190.555657 84.0289809,190.118083 84.0851557,189.689065 C80.4219789,188.802282 76.8554367,187.390257 73.5,185.452995 L29.9285485,160.297005 C25.7377311,157.877436 22.0918154,154.763018 19.1023118,151.146894 C17.5265565,154.600059 14.0435464,157 10,157 C4.4771525,157 0,152.522847 0,147 C0,141.477153 4.4771525,137 10,137 C10.5474773,137 11.0846789,137.043995 11.6082622,137.128644 C10.5085396,133.45659 9.92854853,129.597581 9.92854853,125.655989 L9.92854853,75.3440108 C9.92854853,73.1960827 10.100782,71.0726783 10.4354974,68.9906875 C10.2911038,68.9968747 10.1459169,69 10,69 C4.4771525,69 0,64.5228475 0,59 C0,53.4771525 4.4771525,49 10,49 C12.8883129,49 15.4906249,50.2245154 17.316116,52.1827264 C20.5926554,47.5682088 24.8624619,43.6279011 29.9285485,40.7029946 L73.5,15.5470054 C76.8554367,13.6097431 80.4219789,12.1977182 84.0851551,11.3109308 Z" id="Combined-Shape"></path>
        </g>
    </g>
</svg>
